<?xml version="1.0" standalone="no"?>
<!DOCTYPE svg PUBLIC "-//W3C//DTD SVG 20010904//EN"
 "http://www.w3.org/TR/2001/REC-SVG-20010904/DTD/svg10.dtd">
<svg version="1.0" xmlns="http://www.w3.org/2000/svg"
 width="1024.000000pt" height="1024.000000pt" viewBox="0 0 1024.000000 1024.000000"
 preserveAspectRatio="xMidYMid meet">
<metadata>
Created by potrace 1.11, written by Peter Selinger 2001-2013
</metadata>
<g transform="translate(0.000000,1024.000000) scale(0.100000,-0.100000)"
fill="#000000" stroke="none">
<path d="M0 5120 l0 -5120 5120 0 5120 0 0 5120 0 5120 -5120 0 -5120 0 0
-5120z m5426 3480 c371 -29 679 -96 949 -206 530 -217 1011 -622 1287 -1087
342 -573 458 -1305 312 -1967 -107 -483 -353 -918 -739 -1306 -221 -222 -423
-368 -690 -499 -491 -241 -1148 -329 -1492 -199 -120 45 -180 91 -403 309
-232 226 -275 258 -417 308 -116 41 -231 42 -343 5 -86 -28 -132 -55 -213
-126 -97 -86 -162 -90 -304 -20 -126 62 -391 305 -553 508 -245 307 -430 692
-514 1072 -134 599 -58 1203 219 1746 129 254 253 427 455 635 444 458 958
708 1650 802 248 33 561 43 796 25z m1481 -5369 c71 -33 78 -53 81 -231 20
-1174 20 -1254 2 -1297 -22 -50 -61 -73 -125 -73 -38 0 -52 6 -82 34 l-37 34
-7 168 c-4 93 -10 421 -14 730 l-7 560 28 34 c27 32 74 59 104 59 8 0 34 -8
57 -18z m-2108 -5 c59 -31 66 -54 69 -244 3 -147 6 -173 18 -168 75 29 134 38
219 34 82 -3 101 -8 168 -41 86 -42 169 -119 209 -194 50 -92 55 -132 63 -529
7 -335 6 -373 -9 -403 -37 -71 -145 -96 -205 -46 -16 14 -34 40 -39 58 -6 18
-13 191 -16 384 -4 205 -11 364 -17 380 -14 38 -56 81 -103 105 -30 15 -53 19
-97 16 -75 -5 -129 -40 -159 -104 -23 -47 -23 -47 -17 -403 4 -258 2 -365 -6
-391 -27 -77 -143 -108 -207 -53 -17 14 -36 37 -40 49 -5 13 -14 345 -21 739
-12 778 -14 752 43 800 35 29 102 34 147 11z m-1825 -26 c189 -48 356 -191
356 -304 0 -66 -66 -136 -128 -136 -50 0 -75 15 -144 82 -84 84 -122 101 -225
106 -141 7 -234 -33 -274 -116 -25 -52 -22 -119 8 -161 38 -52 99 -72 250 -82
208 -13 305 -38 411 -105 111 -71 179 -170 207 -299 18 -87 18 -132 1 -216
-20 -94 -51 -153 -118 -224 -171 -183 -527 -239 -772 -122 -137 66 -228 152
-291 277 -34 66 -36 125 -7 172 26 42 59 58 117 58 57 0 102 -38 147 -122 36
-67 104 -126 179 -154 63 -24 208 -24 284 -1 160 49 236 183 176 312 -46 99
-120 133 -314 146 -256 17 -363 54 -460 159 -82 88 -102 145 -102 296 0 119 0
121 38 197 60 121 166 200 320 238 100 24 244 24 341 -1z m4761 -324 c180 -48
319 -202 344 -382 6 -38 11 -222 12 -409 2 -371 1 -382 -56 -419 -44 -29 -80
-30 -130 -6 l-46 22 -67 -22 c-138 -45 -256 -37 -381 26 -116 58 -212 180
-240 305 -6 25 -11 152 -12 284 -2 223 0 244 20 300 53 148 171 259 320 300
61 17 174 18 236 1z m-1515 -22 c170 -38 307 -177 346 -351 12 -57 15 -119 12
-310 -3 -237 -3 -238 -31 -298 -100 -213 -317 -325 -536 -274 -173 39 -321
196 -351 370 -7 40 -10 154 -8 300 l3 234 37 75 c103 207 306 305 528 254z
m-2033 -45 c125 -46 242 -161 274 -270 16 -52 -10 -122 -55 -150 -65 -40 -158
-14 -192 53 -29 58 -75 98 -132 114 -88 26 -175 -8 -220 -86 l-27 -45 3 -214
c2 -185 5 -218 21 -250 74 -143 277 -147 348 -6 56 111 174 135 239 49 51 -66
25 -169 -69 -271 -234 -255 -653 -177 -778 145 -19 49 -23 86 -30 277 -10 253
-3 331 41 420 56 116 183 216 316 250 76 19 184 12 261 -16z"/>
<path d="M5363 8230 c-582 -66 -1065 -511 -1190 -1093 -26 -120 -23 -342 5
-466 71 -306 278 -626 560 -861 188 -158 288 -215 627 -355 116 -48 237 -103
270 -123 197 -117 332 -284 379 -468 20 -79 21 -232 1 -309 -37 -143 -142
-298 -248 -366 -107 -69 -255 -98 -358 -69 -49 14 -89 59 -96 109 -8 55 12 81
100 137 130 83 179 147 179 233 -1 124 -87 210 -211 211 -117 0 -281 -62 -373
-140 -26 -22 -68 -72 -94 -111 -158 -239 -131 -554 66 -749 150 -149 304 -198
580 -187 278 12 522 77 816 217 219 104 259 173 185 318 -28 54 -30 96 -6 122
26 29 54 25 136 -17 60 -32 81 -38 133 -38 86 0 140 30 255 141 179 171 197
262 82 413 -45 60 -49 76 -25 110 19 27 56 26 162 -3 102 -28 146 -5 181 95
10 30 35 87 55 127 20 40 43 99 52 132 23 91 9 128 -82 218 -80 79 -90 106
-55 141 11 11 43 27 71 35 73 22 112 49 139 96 23 41 23 44 18 308 -5 305 -9
328 -93 582 -206 621 -593 1079 -1149 1357 -225 114 -484 204 -684 238 -107
19 -293 26 -388 15z m963 -1520 c111 -50 184 -139 184 -223 0 -28 -6 -40 -25
-53 -24 -16 -30 -15 -103 10 -126 43 -231 33 -360 -33 -48 -25 -104 -27 -122
-6 -20 24 -6 116 26 176 30 54 73 93 141 128 94 47 159 47 259 1z"/>
<path d="M4250 8124 c-528 -140 -979 -462 -1280 -916 -184 -277 -292 -555
-352 -903 -19 -109 -22 -168 -22 -365 0 -202 3 -253 23 -365 81 -454 295 -853
661 -1229 155 -160 189 -186 244 -186 54 0 74 15 198 141 210 214 311 214 551
1 129 -114 154 -105 196 68 48 193 116 333 238 483 106 132 258 232 418 275
l70 19 -160 81 c-237 120 -348 189 -470 294 -369 316 -629 731 -706 1129 -55
286 -23 645 82 915 59 151 209 372 353 522 56 58 52 61 -44 36z"/>
<path d="M7555 2608 c-43 -16 -77 -44 -102 -86 -22 -35 -23 -47 -23 -251 0
-198 2 -218 21 -258 69 -143 277 -144 350 -1 19 37 20 54 17 251 -3 179 -6
217 -21 244 -48 90 -152 133 -242 101z"/>
<path d="M6063 2591 c-44 -11 -77 -34 -110 -78 l-28 -36 0 -232 0 -231 27 -41
c82 -125 273 -121 338 7 18 35 20 59 20 247 0 181 -3 213 -19 249 -41 89 -136
137 -228 115z"/>
</g>
</svg>
